/* XPM */
static char *Free_Converter_com_genteshare64_46844718[] = {
/* columns rows colors chars-per-pixel */
"64 64 32 1 ",
"  c black",
". c #030000",
"X c #040000",
"o c #A70410",
"O c #A80410",
"+ c #A80510",
"@ c #A90510",
"# c #AD0512",
"$ c #E20615",
"% c #E20715",
"& c #E30716",
"* c #E50615",
"= c #E50715",
"- c #E60615",
"; c #E60715",
": c #E50716",
"> c #E60616",
", c #E60716",
"< c #EB0715",
"1 c #E90716",
"2 c #EC0616",
"3 c #EC0716",
"4 c #EC0717",
"5 c #ED0717",
"6 c #FF0717",
"7 c #FF0718",
"8 c #FF0719",
"9 c #FF071A",
"0 c #FF071C",
"q c #FF0819",
"w c #FF081A",
"e c None",
/* pixels */
"eeeeeeeeeeeeeeeeeeeeeeeeeeeeeeeeeeeeeeeeeeeeeeeeeeeeeeeeeeeeeeee",
"eeeeeeeeeeeeeeeeeeeeeeeeeeeeeeeeeeeeeeeeeeeeeeeeeeeeeeeeeeeeeeee",
"eeeeeeeeeeeeeeeeeeeeeeeeeeeeeeeeeeeeeeeeeeeeeeeeeeeeeeeeeeeeeeee",
"eeeeeeeeeeeeeeeeeeeeeeeeeeeeeeeeeeeeeeeeeeeeeeeeeeeeeeeeeeeeeeee",
"eeeeeeeeeeeeeeeeeeeeeeeeeeeeXXXXXXX...XXXXXXX.XXXX.XX.XXX.XXeeee",
"eeeeeeeeeeeeeeeeeeeeeeee.X.XXXXXXX..XXX...X.XXXXXX..X.XX....eeee",
"eeeeeeeeeeeeeeeeeeeeeX.XXXX.XXXX.XXXX..X...XXXXXXXX.XXXXXX..eeee",
"eeeeeeeeeeeeeeeeeee.XXXX...XX.XXXX.XX..XXX.X..XX..XXXXXXXX..eeee",
"eeeeeeeeeeeeeeeeeeXXXXXXXX..XXXXXX..XXXX.XX..XXXX.XXXXXXXXXXeeee",
"eeeeeeeeeeeeeeee..XXX.XXXXX.XXXXXXXX..XXXXXXXXXX.XX.XX.XX.XXeeee",
"eeeeeeeeeeeeeeeX.XX.X.XX.XXX.XX.XXXX..X.XXXX.XXX.XX.XX...XXXeeee",
"eeeeeeeeeeeeeeXX.XXXXXXXXX..XXX.X..X.XXXXXXX.XXXXXXX.XXX..XXeeee",
"eeeeeeeeeeeeeX.XXXX.X.XXXXXXXXXXX..XXXXXXXXXX...XXXXXXXXX.XXeeee",
"eeeeeeeeeeeeXX.XXXXXXXXXXXXXXXX..XX.XXXX.XXX..XXXXXXXX.XX.Xeeeee",
"eeeeeeeeeeeXX.X.XX.X.XX.XX.eeeeeeeeeeeeeeeeeeeeeeeeeeeeeeeeeeeee",
"eeeeeeeeeeXX.XXX..XXXXX.Xeeeeeeeeeeeeeeeeeeeeeeeeeeeeeeeeeeeeeee",
"eeeeeeeeeXX..XXXX.XX..Xeeeeeeeeeeeeeeeeeeeeeeeeeeeeeeeeeeeeeeeee",
"eeeeeeeee.XXXXXXXXX.X.eeeeeeeeeeeeeeeeeeeeeeeeeeeeeeeeeeeeeeeeee",
"eeeeeeeeX..XXXX.XXXXeeeeeeeeeeeeeeeeeeeeeeeeeeeeeeeeeeeeeeeeeeee",
"eeeeeeeXXXX..XX.X..eeeeeeeeeeeeeeeeeeeeeeeeeeeeeeeeeeeeeeeeeeeee",
"eeeeeeeXXXX..XXXXXeeeeeeeeeeeeeeeeeeeeeeeeeeeeeeeeeeeeeeeeeeeeee",
"eeeeeeXXX.XXXX..XXeeeeeeeeeeeeeeeeeeeeeeeeeeeeeeeeeeeeeeeeeeeeee",
"eeeeeeXXX.XX.XXXXeeeeeeeeeeeeeeeeeeeeeeeeeeeeeeeeeeeeeeeeeeeeeee",
"eeeeeeXXXXXX.XX.eeeeeeeeeeeeeeeeeeeeeeeeeeeeeeeeeeeeeeeeeeeeeeee",
"eeeeeXX.XXXXXXXXeeeeeeeeeeeeeeeeeeeeeeeeeeeeeeeeeeeeeeeeeeeeeeee",
"eeeeeXXXXX.XXXXeeeeeeeeeeeeeeeeeeeeeeeeeeeeeeeeeeeeeeeeeeeeeeeee",
"eeeee..XXXXX.XXeeeeeeeeeeeeeeeeeeeeeeeeeeeeeeeeeeeeeeeeeeeeeeeee",
"eeeee.X..XXX..Xeeeeeeeeeeeeeeeeeeeeeeeeeeeeeeeeeeeeeeeeeeeeeeeee",
"eeeeXXX.XX....eeeeeeeeeeeeeeeeeeeeeeeeeeeeeeeeeeeeeeeeeeeeeeeeee",
"eeeeXX.XXX.XXXeeeeeeeeeeeeeeeeeeeeeeeeeeeeeeeeeeeeeeeeeeeeeeeeee",
"eeeeX.XX.XXXXXeeeeeeeeeeeeeee,,,,,,,,,,,,,,,,,,eeeeq2:,,,,,,eeee",
"eeee..X.XX..XXeeeeeeeeeeeeeee,,,,,,,-,,,,,,,,,,eeee72,,,,,,,,eee",
"eeeeXXX.XX.XX.eeeeeeeeeeeeeee,,,,,,,-,,,,,,,,,,eeee7<::,,,,,-eee",
"eeeeXXXXXXXX..eeeeeeeeeeeeeee,,,$,--,$,,,-$,-,,eeee72,,,,,,-$eee",
"eeeeXXX.XXXXXXeeeeeeeeeeeeeee,,,,,--,$-,,-$,,--eeeeq2,,,$,,,,eee",
"eeeeX.X....XXXeeeeeeeeeeeeeee,,,,-$,,-,,-,-,,$,eeeeq5$,,,,,,,eee",
"eeeeX.XX..X..Xeeeeeeeeeeeeeee,,,,,$,,--,,,,,$,,eeeeq2,,,,,::,eee",
"eeeeXXX.XX..XXeeeeeeeeeeeeeee,,,,,,,,,$,$,-,,,,eeee62$%$$:$$$eee",
"eeeeeX..XXXXX.eeeeeeeeeeeeeee,,,,--,,,,,-,-,,,,eeee0q770qqqqqeee",
"eeeeeX.XXXXX.XXeeeeeeeeeeeeee,,,,,-,,,,--,----,eeee#+++++OOOOeee",
"eeeeeXXXXXXXXXXeeeeeeeeeeeeeeeeeeeeee,,,,,,,$,,eeee..........eee",
"eeeeeX..X.XX....eeeeeeeeeeeeeeeeeeeee,,,,,$-,,,eeee..........eee",
"eeeeee..X.XX.XXXeeeeeeeeeeeeeeeeeeeee,,,,,-,,,,eeeeX..XX....Xeee",
"eeeeeeXXXX.XXXXXXeeeeeeeeeeeeeeeeeeee,,,-,-,,,,eeee...XX....Xeee",
"eeeeeeXXXXXXX.X..eeeeeeeeeeeeeeeeeeee,-,,,,-,-,eeeeXXXXXXX..Xeee",
"eeeeeeeXXXXXX.XX.Xeeeeeeeeeeeeeeeeeee,$,,,,,,$,eeee.X.XXXXX.Xeee",
"eeeeeeeXX..XXX.XXXXeeeeeeeeeeeeeeeeee,,,,,,,,,,eeee.X..XXX..Xeee",
"eeeeeeeeXX.XXXXXXXX.eeeeeeeeeeeeeeeee,,,,,$--,,eeee.XXXXXXXXXeee",
"eeeeeeeeXX..XXXXXXX.Xeeeeeeeeeeeeeeee,,,,,,,,,,eeee.XX.XXXXXXeee",
"eeeeeeeeeX..XXXXXXXXXXXeeeeeeeeeeeeee-$,,,,,,,,eeee.XXXXXXXXXeee",
"eeeeeeeeee.XXX..XXXXXXXXeeeeeeeeeeeee,,,,,,,,,,eeeeXX.XXXXXXXeee",
"eeeeeeeeeeeXX...XXXX.XXXXXeeeeeeeeeee,,,,,,,,,,eeee.XX.XXXXXXeee",
"eeeeeeeeeeeXXXXXXXXXXXXXXXX.XXeeeeeee,,,,,,$,,,eeeeXXXX.XXXXXeee",
"eeeeeeeeeeeeXX..X.XXX.XXXXXXXX.X.eeee,,,,,,,,,,eeeeXX.XX.X.XXeee",
"eeeeeeeeeeeeeX...XXX.XXXXXXXX..XXeeee,,,*,,,,,,eeee.X...X.X.Xeee",
"eeeeeeeeeeeeeeXX.XXXX..XXXXX..X.Xeeee,,,*,,,,,,eeee.X..XX.X.Xeee",
"eeeeeeeeeeeeeeeeX..XXXXX.XXXXXX.Xeeee,,,**,*,,,eeeeXX..XX.XX.eee",
"eeeeeeeeeeeeeeeeeXXXXXXX.XXXX....eeee,,,*$,,**,eeeeXX.XXXXXXXeee",
"eeeeeeeeeeeeeeeeeee.XX.XXX.X..XXXeeee,,,,,,,**,eeeeXX..XXXXXXeee",
"eeeeeeeeeeeeeeeeeeeee..XXXXX.XXX.eeee,,,,,,$,,,eeee.XX...XX.Xeee",
"eeeeeeeeeeeeeeeeeeeeeeeXXXXXX.XX.eeee,,,,,,,,,,eeee.XX...XXX.eee",
"eeeeeeeeeeeeeeeeeeeeeeeeeee.XXXX.eeee,,,,,,,,,,eeeeXX.XX.XXX.eee",
"eeeeeeeeeeeeeeeeeeeeeeeeeeeeeeeXXeeeeeeeeeeeeeeeeeeeeeeeeeeeeeee",
"eeeeeeeeeeeeeeeeeeeeeeeeeeeeeeeeeeeeeeeeeeeeeeeeeeeeeeeeeeeeeeee"
};
