/* XPM */
static char *Free_Converter_com_genteshare16_2714717[] = {
/* columns rows colors chars-per-pixel */
"16 16 29 1 ",
"  c black",
". c #030000",
"X c #040000",
"o c #050000",
"O c #D10616",
"+ c #D80615",
"@ c #DC0615",
"# c #DC0715",
"$ c #DD0715",
"% c #DE0715",
"& c #E20715",
"* c #E60715",
"= c #E40716",
"- c #E50716",
"; c #E60716",
": c #E70716",
"> c #EB0716",
", c #ED0716",
"< c #EF0716",
"1 c #F40717",
"2 c #FD0717",
"3 c #F90718",
"4 c #F50819",
"5 c #F70818",
"6 c #FA0818",
"7 c #FF0818",
"8 c #FF081A",
"9 c #FF091C",
"0 c None",
/* pixels */
"0000000000000000",
"000000XXXX..XXX0",
"0000XXXXXX..XXX0",
"000XXXX000000000",
"00..X00000000000",
"00XX000000000000",
"0XXX000000000000",
"0XX0000000000000",
"0XX0000;;;<#0472",
"0XXX000;;;<#0O#+",
"0XXX00000&3#0...",
"00XXX0000>6#0...",
"00XXXX00085#0...",
"000XXXX.091#0...",
"00000X..091#0.XX",
"0000000.00100.X0"
};
