/* XPM */
static char *Free_Converter_com_genteshare128_77404718[] = {
/* columns rows colors chars-per-pixel */
"128 128 51 1 ",
"  c black",
". c #010000",
"X c #020000",
"o c #030000",
"O c #040000",
"+ c #050000",
"@ c #2A0204",
"# c #570208",
"$ c #580208",
"% c #590208",
"& c #580308",
"* c #590308",
"= c #5A0308",
"- c #5B0308",
"; c #66030A",
": c #680309",
"> c #690309",
", c #6A0309",
"< c #69030A",
"1 c #6A030A",
"2 c #6E030A",
"3 c #75030A",
"4 c #E30615",
"5 c #E40615",
"6 c #E50615",
"7 c #E50715",
"8 c #E60615",
"9 c #E60715",
"0 c #E50616",
"q c #E40716",
"w c #E50716",
"e c #E60616",
"r c #E60716",
"t c #EC0616",
"y c #EC0716",
"u c #ED0716",
"i c #EC0717",
"p c #ED0717",
"a c #EE0616",
"s c #EF0616",
"d c #F00616",
"f c #F00717",
"g c #F60617",
"h c #FF0618",
"j c #FF0718",
"k c #FF0619",
"l c #FF0719",
"z c #FF0819",
"x c #FF081A",
"c c #FF081C",
"v c None",
/* pixels */
"vvvvvvvvvvvvvvvvvvvvvvvvvvvvvvvvvvvvvvvvvvvvvvvvvvvvvvvvvvvvvvvvvvvvvvvvvvvvvvvvvvvvvvvvvvvvvvvvvvvvvvvvvvvvvvvvvvvvvvvvvvvvvvvv",
"vvvvvvvvvvvvvvvvvvvvvvvvvvvvvvvvvvvvvvvvvvvvvvvvvvvvvvvvvvvvvvvvvvvvvvvvvvvvvvvvvvvvvvvvvvvvvvvvvvvvvvvvvvvvvvvvvvvvvvvvvvvvvvvv",
"vvvvvvvvvvvvvvvvvvvvvvvvvvvvvvvvvvvvvvvvvvvvvvvvvvvvvvvvvvvvvvvvvvvvvvvvvvvvvvvvvvvvvvvvvvvvvvvvvvvvvvvvvvvvvvvvvvvvvvvvvvvvvvvv",
"vvvvvvvvvvvvvvvvvvvvvvvvvvvvvvvvvvvvvvvvvvvvvvvvvvvvvvvvvvvvvvvvvvvvvvvvvvvvvvvvvvvvvvvvvvvvvvvvvvvvvvvvvvvvvvvvvvvvvvvvvvvvvvvv",
"vvvvvvvvvvvvvvvvvvvvvvvvvvvvvvvvvvvvvvvvvvvvvvvvvvvvvvvvvvvvvvvvvvvvvvvvvvvvvvvvvvvvvvvvvvvvvvvvvvvvvvvvvvvvvvvvvvvvvvvvvvvvvvvv",
"vvvvvvvvvvvvvvvvvvvvvvvvvvvvvvvvvvvvvvvvvvvvvvvvvvvvvvvvvvvvvvvvvvvvvvvvvvvvvvvvvvvvvvvvvvvvvvvvvvvvvvvvvvvvvvvvvvvvvvvvvvvvvvvv",
"vvvvvvvvvvvvvvvvvvvvvvvvvvvvvvvvvvvvvvvvvvvvvvvvvvvvvvvvvvvvvvvvvvvvvvvvvvvvvvvvvvvvvvvvvvvvvvvvvvvvvvvvvvvvvvvvvvvvvvvvvvvvvvvv",
"vvvvvvvvvvvvvvvvvvvvvvvvvvvvvvvvvvvvvvvvvvvvvvvvvvvvvvvvvvvvvvvvvvvvvvvvvvvvvvvvvvvvvvvvvvvvvvvvvvvvvvvvvvvvvvvvvvvvvvvvvvvvvvvv",
"vvvvvvvvvvvvvvvvvvvvvvvvvvvvvvvvvvvvvvvvvvvvvvvvvvvvvvvvvvOOOOOOooOOOOooOooOoOOoOOOOOoOOOOOOooOoOOOOOooOOOOOOOOOOOOOOOOvvvvvvvvv",
"vvvvvvvvvvvvvvvvvvvvvvvvvvvvvvvvvvvvvvvvvvvvvvvvvvvvvOOOOOOOOOOOOOOOOOooOooOoOOooOOOOOOOOooOOOOOOOOOOooOOoooOOOOOOOooOOvvvvvvvvv",
"vvvvvvvvvvvvvvvvvvvvvvvvvvvvvvvvvvvvvvvvvvvvvvvvvoOOooOOOOOoOOoOOOOoOooOOOOOOoOOoOOOOoOOOooooOOoOOOOooOOOoooOOOoooOooOOvvvvvvvvv",
"vvvvvvvvvvvvvvvvvvvvvvvvvvvvvvvvvvvvvvvvvvvvvvOOooOOooOOOoOOOOoOOOooOooOOOOOOoOooOooOoOooOOoOOOooOOOOooOoOOOOOOoooOOOoovvvvvvvvv",
"vvvvvvvvvvvvvvvvvvvvvvvvvvvvvvvvvvvvvvvvvvvvooOOOOOoOOooOOOOOOOooOoOOOooOOOOoOOOOooOOOooOOOOOOOOOOOOOooOoOOOOOOOOOOOOoovvvvvvvvv",
"vvvvvvvvvvvvvvvvvvvvvvvvvvvvvvvvvvvvvvvvvvOOooOOOOooOOooOOOooOOooOOOoOOoOOOooOOOOoOOoOoOOooOooOOOOOOOOOOOOOooOOOOOOoOOOvvvvvvvvv",
"vvvvvvvvvvvvvvvvvvvvvvvvvvvvvvvvvvvvvvvvOOOOOOOOOOOOooOOoOoOOoOOOOOOooOOOOOooOOOOOOOooOOOooOOOOoOooOoOOoOOOOOOoOOOOoOoovvvvvvvvv",
"vvvvvvvvvvvvvvvvvvvvvvvvvvvvvvvvvvvvvvooOOOOOOOOOooOooOOoOooOOoOOOOOOooOOOOOooOOOOOOOoOooOOOOOOoOooOOOOoOOOOOOoOOOOOOoovvvvvvvvv",
"vvvvvvvvvvvvvvvvvvvvvvvvvvvvvvvvvvvvoOOOOOOOooOOooOOOooOOOOOOOooOoOOOooOOOOOOoOOOooOOOoooOOOOooOOOooOOOOOOooOOOOooOOoOOvvvvvvvvv",
"vvvvvvvvvvvvvvvvvvvvvvvvvvvvvvvvvvvoOOOOOOOOOOOOOOOOOOooOOOOOOOOOOOOOOoOOOOOOoOOOOOOOOOOOooOOOOOOOOOOOOOOOOOOOOOOOOOOOOvvvvvvvvv",
"vvvvvvvvvvvvvvvvvvvvvvvvvvvvvvvvvOOOOOOOOOooOOoOOOOooOooOOOoOOOOoOOOOooOOOOOOOOOooOOOoOOOOOOOOOOOOOOOOOooOOooOOoOOooOOOvvvvvvvvv",
"vvvvvvvvvvvvvvvvvvvvvvvvvvvvvvvvOooOOOOOOOOOOOooooOOoOOoOOooOOOOoOOOOOOOOooOoOOOOOooOooOooOOOOOOooOOOOOooOOOooOooOooOOOvvvvvvvvv",
"vvvvvvvvvvvvvvvvvvvvvvvvvvvvvvooOooOOOooOOooOOOoooOOooOooooOOOOOOOOoOOOOOooOoOooOOoOOOoOOOOOOOOOoooOOooOOOOOOOOOooOOOOOvvvvvvvvv",
"vvvvvvvvvvvvvvvvvvvvvvvvvvvvvOOoOOOOOOooOOooOOOOOOOOOOOOooOOOOooOOOoOOOOOOOOOooooOOOoOOOOooOooOOOOooOooOOOOooOooOOOOoOOvvvvvvvvv",
"vvvvvvvvvvvvvvvvvvvvvvvvvvvvOoOOooOOOOOOOOOOOOOOOOOOOooOOOOOOOooOOOOOOOOooOOOoOOOOOooOOOooOOOOOoOOOOOOOooOOOOOOOOooOoOOvvvvvvvvv",
"vvvvvvvvvvvvvvvvvvvvvvvvvvvOooOOOooOOoOOOooOOOOOooOOOooOOOooOooOOOOooOOOooOOoOOoOOoOOOoOOOOOOOOoOOOOoOOooOoOOOOOOooOOOOvvvvvvvvv",
"vvvvvvvvvvvvvvvvvvvvvvvvvvoOoOOoOOoOOooOOOoOOOOOOOOOOOOOoOoOOOOoOOOooOOOOOOooOOooOOOOOoOOOooOooOOOOOoOOOOOoOOOooOOOoOOOvvvvvvvvv",
"vvvvvvvvvvvvvvvvvvvvvvvvvOOOoOooOOOOOOooOOooOOOOOOOOOOOOoOOOoOOoOoOOOOOOOOOoOOOOOOOOOOoOOOooOooOOOOOOOOOOOOOOOoOOoOooOOvvvvvvvvv",
"vvvvvvvvvvvvvvvvvvvvvvvvOOOoOOOOooOOOOOOOoOOooOOoOOooOOoOOOOOooOooOOOOooOOOOOOOOooOOoOOoOooOOOOOOOoOOoOOoOOOOooOOooOoOOvvvvvvvvv",
"vvvvvvvvvvvvvvvvvvvvvvvOOOOOoOoOOoOOOoOOOOOOOOOOOOOoOOOOoOOOOvvvvvvvvvvvvvvvvvvvvvvvvvvvvvvvvvvvvvvvvvvvvvvvvvvvvvvvvvvvvvvvvvvv",
"vvvvvvvvvvvvvvvvvvvvvvoOOooOOOooOOOoooOOOooOOOoOOOOOoooOvvvvvvvvvvvvvvvvvvvvvvvvvvvvvvvvvvvvvvvvvvvvvvvvvvvvvvvvvvvvvvvvvvvvvvvv",
"vvvvvvvvvvvvvvvvvvvvvOOOOooOOOooOOOooOOoOOoOOoOoOOOOOvvvvvvvvvvvvvvvvvvvvvvvvvvvvvvvvvvvvvvvvvvvvvvvvvvvvvvvvvvvvvvvvvvvvvvvvvvv",
"vvvvvvvvvvvvvvvvvvvvoOOOOOOOOOOOooOOOOOooOOOooOoOOOvvvvvvvvvvvvvvvvvvvvvvvvvvvvvvvvvvvvvvvvvvvvvvvvvvvvvvvvvvvvvvvvvvvvvvvvvvvvv",
"vvvvvvvvvvvvvvvvvvvvooOooOoOOoOOOooOOOOOOOOOOOoOOvvvvvvvvvvvvvvvvvvvvvvvvvvvvvvvvvvvvvvvvvvvvvvvvvvvvvvvvvvvvvvvvvvvvvvvvvvvvvvv",
"vvvvvvvvvvvvvvvvvvvOOoOOoOoOOoOOOOooOOOOOooOOOOvvvvvvvvvvvvvvvvvvvvvvvvvvvvvvvvvvvvvvvvvvvvvvvvvvvvvvvvvvvvvvvvvvvvvvvvvvvvvvvvv",
"vvvvvvvvvvvvvvvvvvoOOooOOOOOOOOooOOoOOooOooOOvvvvvvvvvvvvvvvvvvvvvvvvvvvvvvvvvvvvvvvvvvvvvvvvvvvvvvvvvvvvvvvvvvvvvvvvvvvvvvvvvvv",
"vvvvvvvvvvvvvvvvvvoOOOOOOOOOOOOOOOOOOOooOOOovvvvvvvvvvvvvvvvvvvvvvvvvvvvvvvvvvvvvvvvvvvvvvvvvvvvvvvvvvvvvvvvvvvvvvvvvvvvvvvvvvvv",
"vvvvvvvvvvvvvvvvvoOOOOOOOOooOOOOOOOOOOOOOOvvvvvvvvvvvvvvvvvvvvvvvvvvvvvvvvvvvvvvvvvvvvvvvvvvvvvvvvvvvvvvvvvvvvvvvvvvvvvvvvvvvvvv",
"vvvvvvvvvvvvvvvvOoOooOOOOOOOOOOooOOOOOOoovvvvvvvvvvvvvvvvvvvvvvvvvvvvvvvvvvvvvvvvvvvvvvvvvvvvvvvvvvvvvvvvvvvvvvvvvvvvvvvvvvvvvvv",
"vvvvvvvvvvvvvvvvOOoOooOOooOoOooOOOOOoOOOvvvvvvvvvvvvvvvvvvvvvvvvvvvvvvvvvvvvvvvvvvvvvvvvvvvvvvvvvvvvvvvvvvvvvvvvvvvvvvvvvvvvvvvv",
"vvvvvvvvvvvvvvvOOOOOOOOOOOOOOOooOOooOoovvvvvvvvvvvvvvvvvvvvvvvvvvvvvvvvvvvvvvvvvvvvvvvvvvvvvvvvvvvvvvvvvvvvvvvvvvvvvvvvvvvvvvvvv",
"vvvvvvvvvvvvvvvOOOoOOOOoooOOOOooOOooOovvvvvvvvvvvvvvvvvvvvvvvvvvvvvvvvvvvvvvvvvvvvvvvvvvvvvvvvvvvvvvvvvvvvvvvvvvvvvvvvvvvvvvvvvv",
"vvvvvvvvvvvvvvoOOOoOOOOoooOOOOOoOOoOOvvvvvvvvvvvvvvvvvvvvvvvvvvvvvvvvvvvvvvvvvvvvvvvvvvvvvvvvvvvvvvvvvvvvvvvvvvvvvvvvvvvvvvvvvvv",
"vvvvvvvvvvvvvvooOOOOOOOOOOOOOOOOoOOOvvvvvvvvvvvvvvvvvvvvvvvvvvvvvvvvvvvvvvvvvvvvvvvvvvvvvvvvvvvvvvvvvvvvvvvvvvvvvvvvvvvvvvvvvvvv",
"vvvvvvvvvvvvvOOoOOOOOOOOOOOOOooOooOvvvvvvvvvvvvvvvvvvvvvvvvvvvvvvvvvvvvvvvvvvvvvvvvvvvvvvvvvvvvvvvvvvvvvvvvvvvvvvvvvvvvvvvvvvvvv",
"vvvvvvvvvvvvvOOOOOoooOOoOOOoOooOOOOvvvvvvvvvvvvvvvvvvvvvvvvvvvvvvvvvvvvvvvvvvvvvvvvvvvvvvvvvvvvvvvvvvvvvvvvvvvvvvvvvvvvvvvvvvvvv",
"vvvvvvvvvvvvOOOOOOoooOOoOOOoOOOOOOvvvvvvvvvvvvvvvvvvvvvvvvvvvvvvvvvvvvvvvvvvvvvvvvvvvvvvvvvvvvvvvvvvvvvvvvvvvvvvvvvvvvvvvvvvvvvv",
"vvvvvvvvvvvvooOOOoOOOOOooOOOoOOOOvvvvvvvvvvvvvvvvvvvvvvvvvvvvvvvvvvvvvvvvvvvvvvvvvvvvvvvvvvvvvvvvvvvvvvvvvvvvvvvvvvvvvvvvvvvvvvv",
"vvvvvvvvvvvOOOOOOOOoOOoOOooOOooOOvvvvvvvvvvvvvvvvvvvvvvvvvvvvvvvvvvvvvvvvvvvvvvvvvvvvvvvvvvvvvvvvvvvvvvvvvvvvvvvvvvvvvvvvvvvvvvv",
"vvvvvvvvvvvOOOOooOOooOOOOOooOooOvvvvvvvvvvvvvvvvvvvvvvvvvvvvvvvvvvvvvvvvvvvvvvvvvvvvvvvvvvvvvvvvvvvvvvvvvvvvvvvvvvvvvvvvvvvvvvvv",
"vvvvvvvvvvvOOoOOoOOOOOOoOOOoOOOOvvvvvvvvvvvvvvvvvvvvvvvvvvvvvvvvvvvvvvvvvvvvvvvvvvvvvvvvvvvvvvvvvvvvvvvvvvvvvvvvvvvvvvvvvvvvvvvv",
"vvvvvvvvvvOOOooOoOOOOOOoOOoOOOOvvvvvvvvvvvvvvvvvvvvvvvvvvvvvvvvvvvvvvvvvvvvvvvvvvvvvvvvvvvvvvvvvvvvvvvvvvvvvvvvvvvvvvvvvvvvvvvvv",
"vvvvvvvvvvOOOOOOOOOoOooOOOoOOOOvvvvvvvvvvvvvvvvvvvvvvvvvvvvvvvvvvvvvvvvvvvvvvvvvvvvvvvvvvvvvvvvvvvvvvvvvvvvvvvvvvvvvvvvvvvvvvvvv",
"vvvvvvvvvvOOOOOOOOOoOOoOOoOOOOvvvvvvvvvvvvvvvvvvvvvvvvvvvvvvvvvvvvvvvvvvvvvvvvvvvvvvvvvvvvvvvvvvvvvvvvvvvvvvvvvvvvvvvvvvvvvvvvvv",
"vvvvvvvvvvOOooOOOOOOooOOooOOOovvvvvvvvvvvvvvvvvvvvvvvvvvvvvvvvvvvvvvvvvvvvvvvvvvvvvvvvvvvvvvvvvvvvvvvvvvvvvvvvvvvvvvvvvvvvvvvvvv",
"vvvvvvvvvvoooOOOOOOOOOOOOooOOvvvvvvvvvvvvvvvvvvvvvvvvvvvvvvvvvvvvvvvvvvvvvvvvvvvvvvvvvvvvvvvvvvvvvvvvvvvvvvvvvvvvvvvvvvvvvvvvvvv",
"vvvvvvvvvoooOOOooOOOOOOOOooOOvvvvvvvvvvvvvvvvvvvvvvvvvvvvvvvvvvvvvvvvvvvvvvvvvvvvvvvvvvvvvvvvvvvvvvvvvvvvvvvvvvvvvvvvvvvvvvvvvvv",
"vvvvvvvvvOOOOOOooOOOoOOoOOOOOvvvvvvvvvvvvvvvvvvvvvvvvvvvvvvvvvvvvvvvvvvvvvvvvvvvvvvvvvvvvvvvvvvvvvvvvvvvvvvvvvvvvvvvvvvvvvvvvvvv",
"vvvvvvvvvOOOOOOOOOOOooOooOooOvvvvvvvvvvvvvvvvvvvvvvvvvvvvvvvvvvvvvvvvvvvvvvvvvvvvvvvvvvvvvvvvvvvvvvvvvvvvvvvvvvvvvvvvvvvvvvvvvvv",
"vvvvvvvvvOOOOooOOOOOOOOooOOOvvvvvvvvvvvvvvvvvvvvvvvvvvvvvvvvvvvvvvvvvvvvvvvvvvvvvvvvvvvvvvvvvvvvvvvvvvvvvvvvvvvvvvvvvvvvvvvvvvvv",
"vvvvvvvvvOOoOOooOOOOooOOOOoovvvvvvvvvvvvvvvvvvvvvvvvvvvvvvvvvvvvvvvvvvvvvvvvvvvvvvvvvvvvvvvvvvvvvvvvvvvvvvvvvvvvvvvvvvvvvvvvvvvv",
"vvvvvvvvoOOooOOOOOOOooOOoOOovvvvvvvvvvvvvvvvvvvvvvvvvvvvvvvvvvvvvvvvvvvvvvvvvvvvvvvvvvvvvvvvvvvvvvvvvvvvvvvvvvvvvvvvvvvvvvvvvvvv",
"vvvvvvvvoOOOOOOOoOoOOOOOOoOOvvvvvvvvvvvvvvvvvvvvvvvvvvvvvvv666rr66r6rr6rr666r6rrrrrrr6rrrr6rrvvvvvvvvvjtrrr46rrr666rrrrrvvvvvvvv",
"vvvvvvvvOOooOOOooOoOOOOOOOoOvvvvvvvvvvvvvvvvvvvvvvvvvvvvvvr6rr66rr6rrr6rr6r6666rrrrr66rrrrr6rrvvvvvvv1ztrrrr66r66rr666rrrvvvvvvv",
"vvvvvvvvOooOooOOOOOOOOOooOOvvvvvvvvvvvvvvvvvvvvvvvvvvvvvvv6rrr66rr6rr6rr6rrr6r66rrr66r6r6rr6rrvvvvvvv<jp4rrrrrr6rrr666rrrvvvvvvv",
"vvvvvvvvooOOOoooOOOOOooOOOOOvvvvvvvvvvvvvvvvvvvvvvvvvvvvvv66r6rr66rrr6rr66rrrrr6rr6rrr66rr66r6vvvvvvv<jpr6r66rr6rrrrrr66rvvvvvvv",
"vvvvvvvvoOOOOOooOOOOOooOOOOvvvvvvvvvvvvvvvvvvvvvvvvvvvvvvvrrr66rrr666rrr66rr666rr66rr6r6r66rr6vvvvvvv1jur6rrrrr6rrrrrrr66vvvvvvv",
"vvvvvvvvOOOOOOOOOOooOOOOooOvvvvvvvvvvvvvvvvvvvvvvvvvvvvvvv66rrrr66666rrr66r6rr66rrrr666rr6rr66vvvvvvv1jt666rrrrr6666r6rr6vvvvvvv",
"vvvvvvvvOOOOOOOOOoOOOOOOOOovvvvvvvvvvvvvvvvvvvvvvvvvvvvvvv6r6rr6r666rrr6rr6rrr6666rrr6r6r6rr66vvvvvvv<jt4rrr06rrrrrrr66rrvvvvvvv",
"vvvvvvvvOOOOOOOOOoOOOOOooOOvvvvvvvvvvvvvvvvvvvvvvvvvvvvvvvr66rr66666r66r66r6r66rrrr666r6r6rr6rvvvvvvv<jur6r606rr66rrr6666vvvvvvv",
"vvvvvvvvoOOOOOooOOOOOOOoOOOvvvvvvvvvvvvvvvvvvvvvvvvvvvvvvvr6rrrr6rrr666rrrr66rr6rrr66r6r66r66rvvvvvvv<jt466rrrrr6666rrrr6vvvvvvv",
"vvvvvvvvOOOOOOOooOOOOOOoOOOovvvvvvvvvvvvvvvvvvvvvvvvvvvvvv6rr6rrrrrr6rr6rr6666r66rrr6r6r6rr666vvvvvvv<zt46664rr6rr66rrrrrvvvvvvv",
"vvvvvvvvOOOOOOOOoOOooOOOooOvvvvvvvvvvvvvvvvvvvvvvvvvvvvvvvrr66rr666r66rrr666rr6rr6rrr66rr66rrrvvvvvvv1zprrr6rr6rrrrr6rrrrvvvvvvv",
"vvvvvvvvoOooOOooOooOOOOOOOOOvvvvvvvvvvvvvvvvvvvvvvvvvvvvvvrrrrrrr66666rrr666rrrr66rrr6rrr66rrrvvvvvvv1ztrrrrr66rrrrr6r66rvvvvvvv",
"vvvvvvvvOOooOOOooooOooOooOOOvvvvvvvvvvvvvvvvvvvvvvvvvvvvvv6rrr6rrrr6r66rr666r6rrrrr66rrr6rr666vvvvvvv<ztr66rr66rr66rrrr66vvvvvvv",
"vvvvvvvvOOOOOOOOoOOOoOOooooOvvvvvvvvvvvvvvvvvvvvvvvvvvvvvv666rr66rr6rr66rr66r66rrr66rrrr6r66rrvvvvvvv<zt66r666rr666r6rr66vvvvvvv",
"vvvvvvvvvOooOOOOOOOooOooOooOvvvvvvvvvvvvvvvvvvvvvvvvvvvvvv666rrrrrr6666rrrr66r6rrrr6666rrrr66rvvvvvvv<jt6r6666rr6rrr66666vvvvvvv",
"vvvvvvvvvOOOOOOooOOooOOoOOOovvvvvvvvvvvvvvvvvvvvvvvvvvvvvvi66666rr666rrr66rr6rrr66rr66666rrr66vvvvvvv<jir66rr6rr6rr6r6006vvvvvvv",
"vvvvvvvvvOooOooOOOOOOOooOOOOOvvvvvvvvvvvvvvvvvvvvvvvvvvvvv6rrr6rrrrr66rrrrrr6rr6rr6rrrrr6rr6rrvvvvvvv1jpq466r66rr6rrrr40rvvvvvvv",
"vvvvvvvvvOOOOOOOOOOOOOOOOooOOvvvvvvvvvvvvvvvvvvvvvvvvvvvvv6rr66rrrr66r6rr6r6r66666rr66rr6rr6rrvvvvvvv2jgtfdtdpfffffpffffpvvvvvvv",
"vvvvvvvvvOOOooOOOoOOOOOOOooOOvvvvvvvvvvvvvvvvvvvvvvvvvvvvvr66rr66rr6666666666rr6rr6r66r66r66rrvvvvvvv3cjzjjjjjjjjjjjjjjjjvvvvvvv",
"vvvvvvvvvvOOOooOOoOOOOOOOOOOOOvvvvvvvvvvvvvvvvvvvvvvvvvvvvv66rr66rrr66rrrr6rrrr6rrrr666r6rrrrrvvvvvvv@;-&&&&&&&&#&&&&#&&&vvvvvvv",
"vvvvvvvvvvOOOOOOOOOOOOooOOoOOOvvvvvvvvvvvvvvvvvvvvvvvvvvvvvvvvvvvvvvvvvvvvrrr6666rr66rrr66r66rvvvvvvvoooooooooooooooooooovvvvvvv",
"vvvvvvvvvvOooOOOOOOOOOOoOOoOoOvvvvvvvvvvvvvvvvvvvvvvvvvvvvvvvvvvvvvvvvvvvvrrr6rrrr666rrrr66rrrvvvvvvvoooooooooooooooooooovvvvvvv",
"vvvvvvvvvvOOOOOOOOOOOOOOooOooOovvvvvvvvvvvvvvvvvvvvvvvvvvvvvvvvvvvvvvvvvvvrrrrrr6rrrr66rrr6rrrvvvvvvvOOOooOoooOoooooOOOOovvvvvvv",
"vvvvvvvvvvvOOooOoOOooOOOooOoOoovvvvvvvvvvvvvvvvvvvvvvvvvvvvvvvvvvvvvvvvvvv666rr6rr6rr6r666rrr6vvvvvvvOOOooooooOOooooOOOoovvvvvvv",
"vvvvvvvvvvvOOooOoOooOOOOOOOOOooOvvvvvvvvvvvvvvvvvvvvvvvvvvvvvvvvvvvvvvvvvv66rrrrrr6rr6rrr66rr6vvvvvvvOOOoOooOOOOOooOOOooOvvvvvvv",
"vvvvvvvvvvvOooOOOOoOOOOOOooOoOOOvvvvvvvvvvvvvvvvvvvvvvvvvvvvvvvvvvvvvvvvvvr6rr666rr6r6666rr6rrvvvvvvvOOoooOOooOOooOOOOOOOvvvvvvv",
"vvvvvvvvvvvvOooOOOoOooOOOOOOOOOOOvvvvvvvvvvvvvvvvvvvvvvvvvvvvvvvvvvvvvvvvvrr6rr6666rrrrr66rrr6vvvvvvvooOOOOOOOOOooOOOooOOvvvvvvv",
"vvvvvvvvvvvvOOOOOoOOOooOOoOOOooOOOvvvvvvvvvvvvvvvvvvvvvvvvvvvvvvvvvvvvvvvvrrr6rr666666rrrrrrrrvvvvvvvOOOOOOOOoOOoOOoOOooOvvvvvvv",
"vvvvvvvvvvvvOOOOOoOOOOoOOoOOooOOOOvvvvvvvvvvvvvvvvvvvvvvvvvvvvvvvvvvvvvvvvrrr6rr6rr66666rr66rrvvvvvvvOOoOOOOOoOOoOOoOooOOvvvvvvv",
"vvvvvvvvvvvvvooOoOoOOOOOOOoOoOOooOOvvvvvvvvvvvvvvvvvvvvvvvvvvvvvvvvvvvvvvvrr66rr6rr6rr66rrr6rrvvvvvvvOOoOoOOOOoOOoOOOooOOvvvvvvv",
"vvvvvvvvvvvvvoOOoOOOOoOOOooOOoOOooOOvvvvvvvvvvvvvvvvvvvvvvvvvvvvvvvvvvvvvvrr66rr66rrrrrr66r66rvvvvvvvOOOOoOOOOOOOOOOOOooOvvvvvvv",
"vvvvvvvvvvvvvvOOOoOOOooOOOOoOooOOooOOvvvvvvvvvvvvvvvvvvvvvvvvvvvvvvvvvvvvv666rrrrrrr66rrr66rrrvvvvvvvooOOOoooOOOOooOOOOOOvvvvvvv",
"vvvvvvvvvvvvvvOOOoooOOOOOOOooOOoOOOOOvvvvvvvvvvvvvvvvvvvvvvvvvvvvvvvvvvvvv666r66rrrrrr6rrr6rrrvvvvvvvooOOOooOOoOOOOOOooOOvvvvvvv",
"vvvvvvvvvvvvvvvOOOOooOOOOOOOoOOOoOOOOOvvvvvvvvvvvvvvvvvvvvvvvvvvvvvvvvvvvvr66r6rrrr66rr66rrrrrvvvvvvvOOOOOoOOooOOOOOOooOOvvvvvvv",
"vvvvvvvvvvvvvvvOOOOOOooOOOOOOOOOOOOOOOOvvvvvvvvvvvvvvvvvvvvvvvvvvvvvvvvvvvr6r6rr6rr666r66rrrr6vvvvvvvOooOOOOOOOOOOOOoOOOOvvvvvvv",
"vvvvvvvvvvvvvvvvOOoOOOOOOOOOOOOOoOOoOooOvvvvvvvvvvvvvvvvvvvvvvvvvvvvvvvvvv66r6rrr6rrrr66666rr6vvvvvvvOooOoOOOOOOOOOOoOOOovvvvvvv",
"vvvvvvvvvvvvvvvvvoOOOooOooOOOOooOOOOoOOooOvvvvvvvvvvvvvvvvvvvvvvvvvvvvvvvvr6666rrr66r66rr6rr6rvvvvvvvOooOOOOOOOOOOOoOOOOOvvvvvvv",
"vvvvvvvvvvvvvvvvvOOooOooOOOOOOOOOOOOOOooOOOvvvvvvvvvvvvvvvvvvvvvvvvvvvvvvvr6r666rr6rrr6rrr6rrrvvvvvvvooOOOOOooOOooOOoOOOOvvvvvvv",
"vvvvvvvvvvvvvvvvvvOoOOOoOOOOOOOOOOOOOOOOOOOOvvvvvvvvvvvvvvvvvvvvvvvvvvvvvvr666rr6rr6rrr66rrrr6vvvvvvvooOOoOOooOooOOoOOOOOvvvvvvv",
"vvvvvvvvvvvvvvvvvvOOooOooOOoOOOOooOOooOOooOOOOvvvvvvvvvvvvvvvvvvvvvvvvvvvv6r66rr6rr6rr66r6rr6rvvvvvvvooOooOOOOOOOOOoOOOOOvvvvvvv",
"vvvvvvvvvvvvvvvvvvvOooOOOOOoOOOOoOOOOooooOOooOOovvvvvvvvvvvvvvvvvvvvvvvvvvrrrrrrrr666r6rr6r6rrvvvvvvvOOOOOooOOOOooOOOOOOOvvvvvvv",
"vvvvvvvvvvvvvvvvvvvvOOOOOOOOOoooOOOOOOOOOoOOoOOoovvvvvvvvvvvvvvvvvvvvvvvvvr6rr6r6rr6rrrr66rrr6vvvvvvvOOOOOoooOOOOOOOOOOOOvvvvvvv",
"vvvvvvvvvvvvvvvvvvvvvOOOOoooOooOOOOOoOOOOooOOoOOoOOOvvvvvvvvvvvvvvvvvvvvvvrr666rr6rrr6r6r66rr6vvvvvvvOooOOOOooOOOOOooOOOOvvvvvvv",
"vvvvvvvvvvvvvvvvvvvvvOOOOooooOOOOOOOOOOooOOOooOOOOOOOOvvvvvvvvvvvvvvvvvvvvrr6rrrr66r6666666rrrvvvvvvvOooOOOOOoOOOOOoOOOOOvvvvvvv",
"vvvvvvvvvvvvvvvvvvvvvvooOOOOoOOOooOOOOOOOoOOOOOOOOOOOooOOOvvvvvvvvvvvvvvvv6rr666rr6rrr6r66rrrrvvvvvvvOOooOOOOooOOOOOOOooOvvvvvvv",
"vvvvvvvvvvvvvvvvvvvvvvvOOOOOOooOOOOOoOOOOOooOOOOOooOOOOooOOoOOOOovvvvvvvvv666rr6rr6r6666r6rr6rvvvvvvvOOOOOOOoOOoOOOOOOOOOvvvvvvv",
"vvvvvvvvvvvvvvvvvvvvvvvvOOOOOOOOOOOooOOooOOOOOOOOOOOOOOOOOOOOOOOoovvvvvvvv66rrrr6rrrrrrr6rr6rrvvvvvvvoOOOOOOOOOooOOOooOOOvvvvvvv",
"vvvvvvvvvvvvvvvvvvvvvvvvvOOOoOooOOooOOOoOOooOOOoOOOOOOOOOOOOooOOooOvvvvvvvrr66rr66rrrrrrrr6rr6vvvvvvvoOOoOooOOOoOOOOooOOOvvvvvvv",
"vvvvvvvvvvvvvvvvvvvvvvvvvvOOoOooOOOOOOOOooOOOOOOOOOOOOOOOOooooOOoOvvvvvvvvrr666rr66r666rr66rr6vvvvvvvOOooOooOooOooOoOOOOOvvvvvvv",
"vvvvvvvvvvvvvvvvvvvvvvvvvvvOOOOOOooOOoOOooOOOOOOOOOoOOoOoOoOOOOOOOvvvvvvvv66r6r46rrr6r666rrrrrvvvvvvvOOOOoOOOooOOoOoOOooOvvvvvvv",
"vvvvvvvvvvvvvvvvvvvvvvvvvvvvOOOOoooOOOooOOoooOOOOOOoOOoOOoOooOooOOvvvvvvvv6rrrrr66rrrrrrrrrrrrvvvvvvvooOoOOooOOoOOOOOOooOvvvvvvv",
"vvvvvvvvvvvvvvvvvvvvvvvvvvvvvvOOooOOOOOOOOOooOOOOOOOOOOoOoOoOOoooOvvvvvvvvrr6r66i66rrrrrrrrrrrvvvvvvvooOoOoooOOOOooOOOOOOvvvvvvv",
"vvvvvvvvvvvvvvvvvvvvvvvvvvvvvvvOOooOooOOOOOOOOOoOOoOOOOooOOOOoOOoOvvvvvvvv6666rr6rr66r666rr6rrvvvvvvvOOOOOoOooOOOOooOOOoovvvvvvv",
"vvvvvvvvvvvvvvvvvvvvvvvvvvvvvvvvOooOooOOOOOOOOOOOooOOOOOOoOOOOooOOvvvvvvvv6rrrrrr66rrr66rr6rrrvvvvvvvoOOOOOooOOOOOOoOOOoovvvvvvv",
"vvvvvvvvvvvvvvvvvvvvvvvvvvvvvvvvvvOOOOOOOoOOoOOOooOOOOOOOOOOOooOoovvvvvvvvr66rr66r66r6rr66rrrrvvvvvvvOOooOoooOOoOOOOOOOOOvvvvvvv",
"vvvvvvvvvvvvvvvvvvvvvvvvvvvvvvvvvvvOOOOOOOOOOOOOOOOOooOOooOooOOOOOvvvvvvvvrr6rr6rrrr6rrrrr6666vvvvvvvOOOOOOOOOOooOOOOOOOOvvvvvvv",
"vvvvvvvvvvvvvvvvvvvvvvvvvvvvvvvvvvvvvoOOOOOOooOOOOOOOOOOOOOooOooOovvvvvvvv6rrr66rr6666r66r66rrvvvvvvvOOOOOOoooOOOOOOoOOOOvvvvvvv",
"vvvvvvvvvvvvvvvvvvvvvvvvvvvvvvvvvvvvvvoOOOOOoooOooOOooOooOOOOOoOOOvvvvvvvvrrrr6rrrr666rr666rrrvvvvvvvOOOOOooooOOOOOOoOOOOvvvvvvv",
"vvvvvvvvvvvvvvvvvvvvvvvvvvvvvvvvvvvvvvvvOOOooOoOOOOOooOOooOOOOOOoovvvvvvvvrrr6r6rr6rrrr66rr666vvvvvvvOOoOOoOOOOOOOOOOOooOvvvvvvv",
"vvvvvvvvvvvvvvvvvvvvvvvvvvvvvvvvvvvvvvvvvvoOOOOOOOOOOOOOOOOOOOOOoovvvvvvvvrr6r6rr6rrr666rrrrr6vvvvvvvOooOoOOooOooOoOOOooOvvvvvvv",
"vvvvvvvvvvvvvvvvvvvvvvvvvvvvvvvvvvvvvvvvvvvvvOOOooOOOOOOOOOooOOoOOvvvvvvvvrrrr66rrrrrrrrrrrrrrvvvvvvvooOOoOOooOooOoOOOOOOvvvvvvv",
"vvvvvvvvvvvvvvvvvvvvvvvvvvvvvvvvvvvvvvvvvvvvvvvOOOOOooOOOoOooOOooovvvvvvvvrrr6r66r66rrrrrrr6r6vvvvvvvOOoOOOOOOOOOoOOOOOOovvvvvvv",
"vvvvvvvvvvvvvvvvvvvvvvvvvvvvvvvvvvvvvvvvvvvvvvvvvvoOOoOoOOOOOoOOooOvvvvvvvrr6rrr6rr66666rr66rrvvvvvvvOooOooOOOOOooOOOOOOovvvvvvv",
"vvvvvvvvvvvvvvvvvvvvvvvvvvvvvvvvvvvvvvvvvvvvvvvvvvvvvvvOOOOOOOOOOOOvvvvvvvrr66rrr66r66r6rr66rvvvvvvvvooOOooOOOOooOOOOOOOOvvvvvvv",
"vvvvvvvvvvvvvvvvvvvvvvvvvvvvvvvvvvvvvvvvvvvvvvvvvvvvvvvvvvvvvOOvOOvvvvvvvvvvvvvvvvvvvvvvvvvvvvvvvvvvvvvvvvvvvvvvvvvvvvvvvvvvvvvv",
"vvvvvvvvvvvvvvvvvvvvvvvvvvvvvvvvvvvvvvvvvvvvvvvvvvvvvvvvvvvvvvvvvvvvvvvvvvvvvvvvvvvvvvvvvvvvvvvvvvvvvvvvvvvvvvvvvvvvvvvvvvvvvvvv",
"vvvvvvvvvvvvvvvvvvvvvvvvvvvvvvvvvvvvvvvvvvvvvvvvvvvvvvvvvvvvvvvvvvvvvvvvvvvvvvvvvvvvvvvvvvvvvvvvvvvvvvvvvvvvvvvvvvvvvvvvvvvvvvvv",
"vvvvvvvvvvvvvvvvvvvvvvvvvvvvvvvvvvvvvvvvvvvvvvvvvvvvvvvvvvvvvvvvvvvvvvvvvvvvvvvvvvvvvvvvvvvvvvvvvvvvvvvvvvvvvvvvvvvvvvvvvvvvvvvv"
};
