/* XPM */
static char *Free_Converter_com_genteshare32_23714717[] = {
/* columns rows colors chars-per-pixel */
"32 32 36 1 ",
"  c black",
". c #030000",
"X c #040000",
"o c #050000",
"O c #78030C",
"+ c #95040D",
"@ c #95040E",
"# c #95050E",
"$ c #A50410",
"% c #C90613",
"& c #C80614",
"* c #C90614",
"= c #D50617",
"- c #E10715",
"; c #E30716",
": c #E40615",
"> c #E50615",
", c #E50715",
"< c #E60615",
"1 c #E40716",
"2 c #E50716",
"3 c #E60616",
"4 c #E60716",
"5 c #F00717",
"6 c #F10717",
"7 c #F40717",
"8 c #F50717",
"9 c #FF0718",
"0 c #FF0719",
"q c #F50818",
"w c #FD0818",
"e c #FF0818",
"r c #FF0819",
"t c #FF081A",
"y c #FF081C",
"u c None",
/* pixels */
"uuuuuuuuuuuuuuuuuuuuuuuuuuuuuuuu",
"uuuuuuuuuuuuuuuuuuuuuuuuuuuuuuuu",
"uuuuuuuuuuuuuXXXX..X.XXXXXXXX.uu",
"uuuuuuuuuuXX.XXXXX.....XXXXXX.uu",
"uuuuuuuu.XXXXXXXXX.XX..XXXXXXXuu",
"uuuuuuuXXX.XXXXXX..XXXXXXXXXXXuu",
"uuuuuuXXXXXXXXXX..XXXX.XXXXXXXuu",
"uuuuuXXXXXXXXuuuuuuuuuuuuuuuuuuu",
"uuuuXXXXXX.uuuuuuuuuuuuuuuuuuuuu",
"uuuuX..XXXuuuuuuuuuuuuuuuuuuuuuu",
"uuuXX..XXuuuuuuuuuuuuuuuuuuuuuuu",
"uuuXXXXXuuuuuuuuuuuuuuuuuuuuuuuu",
"uuuXXXXXuuuuuuuuuuuuuuuuuuuuuuuu",
"uuXXXX.uuuuuuuuuuuuuuuuuuuuuuuuu",
"uuXXXX.uuuuuuuuuuuuuuuuuuuuuuuuu",
"uuXXXXXuuuuuuuu44444446uu@t444uu",
"uuXXXXXuuuuuuuu444444:6uu@w:,,4u",
"uuXXXXXuuuuuuuu444:4445uu@t::,4u",
"uuXXX.Xuuuuuuuu4:444446uu$yttt9u",
"uuXXXXXuuuuuuuu14444446uuO=&%%&u",
"uuu.XXXXuuuuuuuuuuu4448uu......u",
"uuu.XXXXuuuuuuuuuuu444quu......u",
"uuuXXXXXXuuuuuuuuuu4446uu.XXX..u",
"uuuuXXXXXXuuuuuuuuu4448uu.XXXXXu",
"uuuuX.XXXXXuuuuuuuu,448uu.XXXXXu",
"uuuuuXX.XXXXXuuuuuu,448uu...XXXu",
"uuuuuuX.XXXXXXXXuuu;448uu...XXXu",
"uuuuuuu.XXXXXXXX.uu:448uu...X.Xu",
"uuuuuuuuXXXXXXXX.uu;446uu.XXXXXu",
"uuuuuuuuuuXXXXXX.uu1448uu.X.XXXu",
"uuuuuuuuuuuuXXXX.uu;448uu.X.XX.u",
"uuuuuuuuuuuuuuuXuuuuuuuuuuuuuuuu"
};
